<svg width="60" height="60" viewBox="0 0 60 60" fill="none" xmlns="http://www.w3.org/2000/svg">
<path d="M24.275 15.7251C24.0426 15.4908 23.7661 15.3048 23.4614 15.1779C23.1568 15.0509 22.83 14.9856 22.5 14.9856C22.17 14.9856 21.8432 15.0509 21.5386 15.1779C21.2339 15.3048 20.9574 15.4908 20.725 15.7251L8.225 28.2251C7.99068 28.4575 7.80469 28.734 7.67777 29.0386C7.55085 29.3433 7.4855 29.6701 7.4855 30.0001C7.4855 30.3301 7.55085 30.6569 7.67777 30.9615C7.80469 31.2662 7.99068 31.5427 8.225 31.7751L20.725 44.2751C20.9574 44.5094 21.2339 44.6954 21.5386 44.8223C21.8432 44.9492 22.17 45.0146 22.5 45.0146C22.83 45.0146 23.1568 44.9492 23.4614 44.8223C23.7661 44.6954 24.0426 44.5094 24.275 44.2751C24.5093 44.0427 24.6953 43.7662 24.8222 43.4615C24.9491 43.1569 25.0145 42.8301 25.0145 42.5001C25.0145 42.1701 24.9491 41.8433 24.8222 41.5386C24.6953 41.234 24.5093 40.9575 24.275 40.7251L13.525 30.0001L24.275 19.2751C24.5093 19.0427 24.6953 18.7662 24.8222 18.4615C24.9491 18.1569 25.0145 17.8301 25.0145 17.5001C25.0145 17.1701 24.9491 16.8433 24.8222 16.5386C24.6953 16.234 24.5093 15.9575 24.275 15.7251ZM51.775 28.2251L39.275 15.7251C39.0419 15.492 38.7652 15.3071 38.4606 15.1809C38.1561 15.0548 37.8296 14.9899 37.5 14.9899C36.8342 14.9899 36.1958 15.2543 35.725 15.7251C35.4919 15.9582 35.307 16.2349 35.1809 16.5395C35.0547 16.844 34.9898 17.1704 34.9898 17.5001C34.9898 18.1658 35.2542 18.8043 35.725 19.2751L46.475 30.0001L35.725 40.7251C35.4907 40.9575 35.3047 41.234 35.1778 41.5386C35.0509 41.8433 34.9855 42.1701 34.9855 42.5001C34.9855 42.8301 35.0509 43.1569 35.1778 43.4615C35.3047 43.7662 35.4907 44.0427 35.725 44.2751C35.9574 44.5094 36.2339 44.6954 36.5386 44.8223C36.8432 44.9492 37.17 45.0146 37.5 45.0146C37.83 45.0146 38.1568 44.9492 38.4614 44.8223C38.7661 44.6954 39.0426 44.5094 39.275 44.2751L51.775 31.7751C52.0093 31.5427 52.1953 31.2662 52.3222 30.9615C52.4492 30.6569 52.5145 30.3301 52.5145 30.0001C52.5145 29.6701 52.4492 29.3433 52.3222 29.0386C52.1953 28.734 52.0093 28.4575 51.775 28.2251Z" fill="#0A663A"/>
</svg>
