<svg width="60" height="60" viewBox="0 0 60 60" fill="none" xmlns="http://www.w3.org/2000/svg">
<path d="M47.5 15H40V7.5C40 6.83696 39.7366 6.20107 39.2678 5.73223C38.7989 5.26339 38.163 5 37.5 5C36.837 5 36.2011 5.26339 35.7322 5.73223C35.2634 6.20107 35 6.83696 35 7.5V15H25V7.5C25 6.83696 24.7366 6.20107 24.2678 5.73223C23.7989 5.26339 23.163 5 22.5 5C21.837 5 21.2011 5.26339 20.7322 5.73223C20.2634 6.20107 20 6.83696 20 7.5V15H12.5C11.837 15 11.2011 15.2634 10.7322 15.7322C10.2634 16.2011 10 16.837 10 17.5C10 18.163 10.2634 18.7989 10.7322 19.2678C11.2011 19.7366 11.837 20 12.5 20H15V32.5C14.9981 32.829 15.0612 33.1552 15.1856 33.4598C15.31 33.7644 15.4933 34.0414 15.725 34.275L22.5 41.025V52.5C22.5 53.163 22.7634 53.7989 23.2322 54.2678C23.7011 54.7366 24.337 55 25 55C25.663 55 26.2989 54.7366 26.7678 54.2678C27.2366 53.7989 27.5 53.163 27.5 52.5V42.5H32.5V52.5C32.5 53.163 32.7634 53.7989 33.2322 54.2678C33.7011 54.7366 34.337 55 35 55C35.663 55 36.2989 54.7366 36.7678 54.2678C37.2366 53.7989 37.5 53.163 37.5 52.5V41.025L44.275 34.275C44.5067 34.0414 44.69 33.7644 44.8144 33.4598C44.9388 33.1552 45.0019 32.829 45 32.5V20H47.5C48.163 20 48.7989 19.7366 49.2678 19.2678C49.7366 18.7989 50 18.163 50 17.5C50 16.837 49.7366 16.2011 49.2678 15.7322C48.7989 15.2634 48.163 15 47.5 15ZM40 31.475L33.975 37.5H26.025L20 31.475V20H40V31.475ZM27.5 32.5H32.5C33.163 32.5 33.7989 32.2366 34.2678 31.7678C34.7366 31.2989 35 30.663 35 30C35 29.337 34.7366 28.7011 34.2678 28.2322C33.7989 27.7634 33.163 27.5 32.5 27.5H27.5C26.837 27.5 26.2011 27.7634 25.7322 28.2322C25.2634 28.7011 25 29.337 25 30C25 30.663 25.2634 31.2989 25.7322 31.7678C26.2011 32.2366 26.837 32.5 27.5 32.5Z" fill="#0A663A"/>
</svg>
