<svg width="80" height="80" viewBox="0 0 80 80" fill="none" xmlns="http://www.w3.org/2000/svg">
<path d="M23.3333 23.3332C22.6741 23.3332 22.0296 23.5287 21.4814 23.8949C20.9333 24.2612 20.506 24.7818 20.2537 25.3909C20.0014 26 19.9354 26.6702 20.0641 27.3168C20.1927 27.9634 20.5101 28.5574 20.9763 29.0235C21.4425 29.4897 22.0364 29.8072 22.683 29.9358C23.3296 30.0644 23.9999 29.9984 24.6089 29.7461C25.218 29.4938 25.7386 29.0666 26.1049 28.5184C26.4712 27.9702 26.6667 27.3258 26.6667 26.6665C26.6667 25.7824 26.3155 24.9346 25.6904 24.3095C25.0652 23.6844 24.2174 23.3332 23.3333 23.3332ZM23.3333 36.6665C22.6741 36.6665 22.0296 36.862 21.4814 37.2283C20.9333 37.5945 20.506 38.1151 20.2537 38.7242C20.0014 39.3333 19.9354 40.0035 20.0641 40.6501C20.1927 41.2967 20.5101 41.8907 20.9763 42.3569C21.4425 42.823 22.0364 43.1405 22.683 43.2691C23.3296 43.3977 23.9999 43.3317 24.6089 43.0794C25.218 42.8271 25.7386 42.3999 26.1049 41.8517C26.4712 41.3036 26.6667 40.6591 26.6667 39.9998C26.6667 39.1158 26.3155 38.2679 25.6904 37.6428C25.0652 37.0177 24.2174 36.6665 23.3333 36.6665ZM56.6667 36.6665H36.6667C35.7826 36.6665 34.9348 37.0177 34.3097 37.6428C33.6845 38.2679 33.3333 39.1158 33.3333 39.9998C33.3333 40.8839 33.6845 41.7317 34.3097 42.3569C34.9348 42.982 35.7826 43.3332 36.6667 43.3332H56.6667C57.5507 43.3332 58.3986 42.982 59.0237 42.3569C59.6488 41.7317 60 40.8839 60 39.9998C60 39.1158 59.6488 38.2679 59.0237 37.6428C58.3986 37.0177 57.5507 36.6665 56.6667 36.6665ZM56.6667 23.3332H36.6667C35.7826 23.3332 34.9348 23.6844 34.3097 24.3095C33.6845 24.9346 33.3333 25.7824 33.3333 26.6665C33.3333 27.5506 33.6845 28.3984 34.3097 29.0235C34.9348 29.6486 35.7826 29.9998 36.6667 29.9998H56.6667C57.5507 29.9998 58.3986 29.6486 59.0237 29.0235C59.6488 28.3984 60 27.5506 60 26.6665C60 25.7824 59.6488 24.9346 59.0237 24.3095C58.3986 23.6844 57.5507 23.3332 56.6667 23.3332ZM63.3333 6.6665H16.6667C14.0145 6.6665 11.471 7.72007 9.5956 9.59544C7.72024 11.4708 6.66667 14.0143 6.66667 16.6665V49.9998C6.66667 52.652 7.72024 55.1955 9.5956 57.0709C11.471 58.9463 14.0145 59.9998 16.6667 59.9998H55.3L67.6333 72.3665C67.9448 72.6754 68.3142 72.9199 68.7203 73.0857C69.1264 73.2516 69.5613 73.3357 70 73.3332C70.4373 73.3444 70.8711 73.2531 71.2667 73.0665C71.8754 72.8164 72.3965 72.3918 72.7643 71.846C73.132 71.3003 73.3301 70.6579 73.3333 69.9998V16.6665C73.3333 14.0143 72.2798 11.4708 70.4044 9.59544C68.529 7.72007 65.9855 6.6665 63.3333 6.6665ZM66.6667 61.9665L59.0333 54.2998C58.7219 53.9909 58.3525 53.7465 57.9464 53.5806C57.5402 53.4147 57.1054 53.3306 56.6667 53.3332H16.6667C15.7826 53.3332 14.9348 52.982 14.3096 52.3569C13.6845 51.7317 13.3333 50.8839 13.3333 49.9998V16.6665C13.3333 15.7824 13.6845 14.9346 14.3096 14.3095C14.9348 13.6844 15.7826 13.3332 16.6667 13.3332H63.3333C64.2174 13.3332 65.0652 13.6844 65.6904 14.3095C66.3155 14.9346 66.6667 15.7824 66.6667 16.6665V61.9665Z" fill="#0A663A"/>
</svg>
