<svg width="60" height="60" viewBox="0 0 60 60" fill="none" xmlns="http://www.w3.org/2000/svg">
<path d="M18.55 38.85C18.0844 39.3184 17.823 39.952 17.823 40.6125C17.823 41.2729 18.0844 41.9066 18.55 42.375C18.7824 42.6093 19.0589 42.7953 19.3635 42.9222C19.6682 43.0491 19.995 43.1145 20.325 43.1145C20.655 43.1145 20.9818 43.0491 21.2864 42.9222C21.5911 42.7953 21.8676 42.6093 22.1 42.375C22.5656 41.9066 22.827 41.2729 22.827 40.6125C22.827 39.952 22.5656 39.3184 22.1 38.85C21.8676 38.6157 21.5911 38.4297 21.2864 38.3028C20.9818 38.1758 20.655 38.1105 20.325 38.1105C19.995 38.1105 19.6682 38.1758 19.3635 38.3028C19.0589 38.4297 18.7824 38.6157 18.55 38.85V38.85ZM18.55 17.625C18.0844 18.0934 17.823 18.727 17.823 19.3875C17.823 20.0479 18.0844 20.6816 18.55 21.15C18.7824 21.3843 19.0589 21.5703 19.3635 21.6972C19.6682 21.8241 19.995 21.8895 20.325 21.8895C20.655 21.8895 20.9818 21.8241 21.2864 21.6972C21.5911 21.5703 21.8676 21.3843 22.1 21.15C22.5656 20.6816 22.827 20.0479 22.827 19.3875C22.827 18.727 22.5656 18.0934 22.1 17.625C21.8676 17.3907 21.5911 17.2047 21.2864 17.0778C20.9818 16.9508 20.655 16.8855 20.325 16.8855C19.995 16.8855 19.6682 16.9508 19.3635 17.0778C19.0589 17.2047 18.7824 17.3907 18.55 17.625ZM30.925 42.625C30.4305 42.625 29.9472 42.7716 29.5361 43.0463C29.1249 43.321 28.8045 43.7115 28.6153 44.1683C28.4261 44.6251 28.3766 45.1278 28.473 45.6127C28.5695 46.0977 28.8076 46.5431 29.1572 46.8927C29.5069 47.2424 29.9523 47.4805 30.4373 47.5769C30.9222 47.6734 31.4249 47.6239 31.8817 47.4347C32.3385 47.2455 32.729 46.925 33.0037 46.5139C33.2784 46.1028 33.425 45.6194 33.425 45.125C33.4419 44.7863 33.3898 44.4477 33.2718 44.1298C33.1538 43.812 32.9723 43.5214 32.7385 43.2758C32.5046 43.0303 32.2232 42.8349 31.9115 42.7015C31.5997 42.5681 31.2641 42.4996 30.925 42.5V42.625ZM15.925 27.625C15.4305 27.625 14.9472 27.7716 14.5361 28.0463C14.1249 28.321 13.8045 28.7115 13.6153 29.1683C13.4261 29.6251 13.3766 30.1278 13.473 30.6127C13.5695 31.0977 13.8076 31.5431 14.1572 31.8927C14.5069 32.2424 14.9523 32.4805 15.4373 32.5769C15.9222 32.6734 16.4249 32.6239 16.8817 32.4347C17.3385 32.2455 17.729 31.925 18.0037 31.5139C18.2784 31.1028 18.425 30.6194 18.425 30.125C18.4419 29.7863 18.3898 29.4477 18.2718 29.1298C18.1538 28.8119 17.9723 28.5214 17.7385 28.2758C17.5046 28.0303 17.2232 27.8349 16.9115 27.7015C16.5997 27.5681 16.2641 27.4996 15.925 27.5V27.625ZM30.925 12.625C30.4305 12.625 29.9472 12.7716 29.5361 13.0463C29.1249 13.321 28.8045 13.7115 28.6153 14.1683C28.4261 14.6251 28.3766 15.1278 28.473 15.6127C28.5695 16.0977 28.8076 16.5431 29.1572 16.8927C29.5069 17.2424 29.9523 17.4805 30.4373 17.5769C30.9222 17.6734 31.4249 17.6239 31.8817 17.4347C32.3385 17.2455 32.729 16.925 33.0037 16.5139C33.2784 16.1028 33.425 15.6194 33.425 15.125C33.4419 14.7863 33.3898 14.4477 33.2718 14.1298C33.1538 13.8119 32.9723 13.5214 32.7385 13.2758C32.5046 13.0303 32.2232 12.8349 31.9115 12.7015C31.5997 12.5681 31.2641 12.4996 30.925 12.5V12.625ZM39.775 17.75C39.4239 18.099 39.1843 18.5444 39.0866 19.0298C38.9889 19.5152 39.0376 20.0186 39.2264 20.4763C39.4152 20.934 39.7356 21.3253 40.147 21.6006C40.5585 21.876 41.0424 22.023 41.5375 22.023C42.0326 22.023 42.5165 21.876 42.928 21.6006C43.3394 21.3253 43.6598 20.934 43.8486 20.4763C44.0374 20.0186 44.086 19.5152 43.9884 19.0298C43.8907 18.5444 43.6511 18.099 43.3 17.75C42.8483 17.2674 42.2239 16.9833 41.5633 16.9599C40.9027 16.9364 40.2597 17.1756 39.775 17.625V17.75ZM55.525 17.75C53.2393 13.1807 49.726 9.33853 45.379 6.65423C41.0319 3.96994 36.023 2.54969 30.914 2.55274C25.805 2.55579 20.7978 3.98203 16.4539 6.67152C12.1101 9.361 8.60137 13.2074 6.32119 17.7794C4.04101 22.3514 3.07954 27.4682 3.5446 32.556C4.00966 37.6438 5.88287 42.5015 8.95416 46.5843C12.0254 50.6671 16.1734 53.8137 20.9328 55.6711C25.6923 57.5284 30.8751 58.0232 35.9 57.1C37.1636 56.8622 38.3671 56.375 39.4403 55.6667C40.5134 54.9584 41.4346 54.0434 42.15 52.975C42.9209 51.8135 43.4527 50.5101 43.7145 49.1409C43.9764 47.7716 43.9629 46.364 43.675 45C43.5176 44.1757 43.4339 43.3391 43.425 42.5C43.4359 40.0774 44.1506 37.7102 45.4822 35.6863C46.8137 33.6624 48.7046 32.069 50.925 31.1C52.1222 30.564 53.1968 29.7883 54.0825 28.8208C54.9683 27.8534 55.6464 26.7147 56.075 25.475C56.5085 24.2082 56.6832 22.8673 56.5887 21.5317C56.4942 20.1961 56.1325 18.8931 55.525 17.7V17.75ZM51.275 23.85C51.0617 24.4483 50.7305 24.9977 50.3011 25.4658C49.8717 25.9338 49.3527 26.311 48.775 26.575C45.6999 27.9515 43.0876 30.1863 41.2516 33.0112C39.4157 35.8361 38.4342 39.1309 38.425 42.5C38.4287 43.6752 38.5459 44.8473 38.775 46C38.9277 46.7045 38.9378 47.4324 38.8047 48.1409C38.6716 48.8493 38.398 49.5239 38 50.125C37.6633 50.651 37.2201 51.1007 36.6992 51.4451C36.1782 51.7896 35.5909 52.0212 34.975 52.125C33.6396 52.3759 32.2837 52.5015 30.925 52.5C27.9104 52.5014 24.9263 51.8971 22.1498 50.7228C19.3733 49.5486 16.8611 47.8284 14.7624 45.6644C12.6637 43.5003 11.0212 40.9366 9.93253 38.1255C8.84386 35.3143 8.3312 32.3131 8.42499 29.3C8.61902 23.682 10.8975 18.3374 14.8166 14.3074C18.7356 10.2774 24.0146 7.85068 29.625 7.49998H30.9C35.0894 7.50103 39.1953 8.6717 42.7553 10.8801C46.3153 13.0886 49.188 16.2471 51.05 20C51.6231 21.1874 51.704 22.5532 51.275 23.8V23.85ZM30.925 27.5C30.4305 27.5 29.9472 27.6466 29.5361 27.9213C29.1249 28.196 28.8045 28.5865 28.6153 29.0433C28.4261 29.5001 28.3766 30.0028 28.473 30.4877C28.5695 30.9727 28.8076 31.4181 29.1572 31.7677C29.5069 32.1174 29.9523 32.3555 30.4373 32.4519C30.9222 32.5484 31.4249 32.4989 31.8817 32.3097C32.3385 32.1205 32.729 31.8 33.0037 31.3889C33.2784 30.9778 33.425 30.4944 33.425 30C33.425 29.3369 33.1616 28.7011 32.6928 28.2322C32.2239 27.7634 31.588 27.5 30.925 27.5Z" fill="#0A663A"/>
</svg>
