<svg width="50" height="50" viewBox="0 0 50 50" fill="none" xmlns="http://www.w3.org/2000/svg">
<path d="M23.5208 32.7292C23.719 32.9188 23.9526 33.0675 24.2083 33.1667C24.7155 33.375 25.2845 33.375 25.7917 33.1667C26.0474 33.0675 26.281 32.9188 26.4792 32.7292L32.7292 26.4792C33.1215 26.0869 33.3419 25.5548 33.3419 25C33.3419 24.4452 33.1215 23.9131 32.7292 23.5208C32.3369 23.1285 31.8048 22.9081 31.25 22.9081C30.6952 22.9081 30.1631 23.1285 29.7708 23.5208L27.0833 26.2292V18.75C27.0833 18.1975 26.8638 17.6676 26.4731 17.2769C26.0824 16.8862 25.5525 16.6667 25 16.6667C24.4475 16.6667 23.9176 16.8862 23.5269 17.2769C23.1362 17.6676 22.9167 18.1975 22.9167 18.75V26.2292L20.2292 23.5208C20.0355 23.3256 19.8051 23.1706 19.5512 23.0648C19.2973 22.959 19.025 22.9046 18.75 22.9046C18.475 22.9046 18.2027 22.959 17.9488 23.0648C17.6949 23.1706 17.4645 23.3256 17.2708 23.5208C17.0756 23.7145 16.9206 23.9449 16.8148 24.1988C16.709 24.4527 16.6546 24.725 16.6546 25C16.6546 25.275 16.709 25.5473 16.8148 25.8012C16.9206 26.0551 17.0756 26.2855 17.2708 26.4792L23.5208 32.7292ZM25 45.8333C29.1204 45.8333 33.1484 44.6115 36.5744 42.3223C40.0004 40.0331 42.6707 36.7794 44.2475 32.9726C45.8243 29.1658 46.2369 24.9769 45.433 20.9356C44.6292 16.8943 42.645 13.1822 39.7314 10.2686C36.8178 7.35501 33.1057 5.37083 29.0644 4.56697C25.0231 3.76311 20.8342 4.17568 17.0274 5.75251C13.2206 7.32933 9.96692 9.9996 7.67772 13.4256C5.38853 16.8516 4.16667 20.8796 4.16667 25C4.16667 30.5253 6.36161 35.8244 10.2686 39.7314C12.2032 41.6659 14.4998 43.2005 17.0274 44.2475C19.555 45.2945 22.2641 45.8333 25 45.8333ZM25 8.33333C28.2964 8.33333 31.5187 9.31082 34.2595 11.1422C37.0003 12.9735 39.1365 15.5765 40.398 18.6219C41.6595 21.6674 41.9895 25.0185 41.3464 28.2515C40.7033 31.4845 39.116 34.4542 36.7851 36.7851C34.4542 39.116 31.4845 40.7033 28.2515 41.3464C25.0185 41.9895 21.6674 41.6595 18.6219 40.398C15.5765 39.1365 12.9735 37.0003 11.1422 34.2595C9.31082 31.5187 8.33334 28.2964 8.33334 25C8.33334 20.5797 10.0893 16.3405 13.2149 13.2149C16.3405 10.0893 20.5797 8.33333 25 8.33333Z" fill="white"/>
</svg>
