<svg width="80" height="80" viewBox="0 0 80 80" fill="none" xmlns="http://www.w3.org/2000/svg">
<path d="M23.3334 53.3332C22.6741 53.3332 22.0296 53.5287 21.4815 53.8949C20.9333 54.2612 20.506 54.7818 20.2538 55.3909C20.0015 56 19.9355 56.6702 20.0641 57.3168C20.1927 57.9634 20.5102 58.5574 20.9763 59.0235C21.4425 59.4897 22.0365 59.8072 22.6831 59.9358C23.3297 60.0644 23.9999 59.9984 24.609 59.7461C25.2181 59.4938 25.7386 59.0666 26.1049 58.5184C26.4712 57.9702 26.6667 57.3258 26.6667 56.6665C26.6667 55.7825 26.3155 54.9346 25.6904 54.3095C25.0653 53.6844 24.2174 53.3332 23.3334 53.3332ZM63.5334 39.9998L67.6334 35.8998C69.506 34.0248 70.5579 31.4832 70.5579 28.8332C70.5579 26.1832 69.506 23.6415 67.6334 21.7665L58.2 12.3665C56.325 10.4938 53.7834 9.44197 51.1334 9.44197C48.4833 9.44197 45.9417 10.4938 44.0667 12.3665L40 16.4665C39.9477 13.8492 38.871 11.3567 37.0013 9.52438C35.1316 7.69205 32.6179 6.66598 30 6.6665H16.6667C14.0145 6.6665 11.471 7.72007 9.59562 9.59544C7.72026 11.4708 6.66669 14.0143 6.66669 16.6665V63.3332C6.66669 65.9853 7.72026 68.5289 9.59562 70.4042C11.471 72.2796 14.0145 73.3332 16.6667 73.3332H63.3334C65.9855 73.3332 68.5291 72.2796 70.4044 70.4042C72.2798 68.5289 73.3334 65.9853 73.3334 63.3332V49.9998C73.3339 47.382 72.3078 44.8683 70.4755 42.9986C68.6432 41.1288 66.1507 40.0522 63.5334 39.9998ZM33.3334 63.3332C33.3334 64.2172 32.9822 65.0651 32.357 65.6902C31.7319 66.3153 30.8841 66.6665 30 66.6665H16.6667C15.7826 66.6665 14.9348 66.3153 14.3097 65.6902C13.6845 65.0651 13.3334 64.2172 13.3334 63.3332V16.6665C13.3334 15.7824 13.6845 14.9346 14.3097 14.3095C14.9348 13.6844 15.7826 13.3332 16.6667 13.3332H30C30.8841 13.3332 31.7319 13.6844 32.357 14.3095C32.9822 14.9346 33.3334 15.7824 33.3334 16.6665V63.3332ZM40 25.8665L48.8 17.0665C49.4246 16.4457 50.2694 16.0972 51.15 16.0972C52.0306 16.0972 52.8755 16.4457 53.5 17.0665L62.9334 26.6665C63.5542 27.291 63.9027 28.1359 63.9027 29.0165C63.9027 29.8971 63.5542 30.742 62.9334 31.3665L53.3334 40.9665L40 54.1332V25.8665ZM66.6667 63.3332C66.6667 64.2172 66.3155 65.0651 65.6904 65.6902C65.0653 66.3153 64.2174 66.6665 63.3334 66.6665H39.4C39.742 65.6786 39.933 64.6447 39.9667 63.5998L56.9 46.6665H63.3334C64.2174 46.6665 65.0653 47.0177 65.6904 47.6428C66.3155 48.2679 66.6667 49.1158 66.6667 49.9998V63.3332Z" fill="#0A663A"/>
</svg>
