<svg width="200" height="46" viewBox="0 0 200 46" fill="none" xmlns="http://www.w3.org/2000/svg">
<path d="M51.3594 11.995C48.4593 13.6931 46.8984 14.3858 43.8925 14.2293C42.761 14.2163 42.1628 13.7326 41.0442 13.8371C40.0032 13.8761 39.4703 14.2683 38.4288 14.6209C36.8291 15.1176 35.9569 15.5618 34.279 16.0845C33.2127 16.3851 32.5369 16.3981 31.4306 16.7767C30.4814 17.1819 30.9366 16.8553 30.2732 17.6255C29.4145 18.5793 29.6227 19.3241 28.8164 20.9567C27.8153 23.0995 27.9313 23.3865 28.5041 23.6482C28.1271 24.745 28.0364 25.4773 28.1271 26.6657C28.2306 27.567 27.8541 28.1937 28.8164 28.912C30.1308 29.8924 32.8885 32.1912 33.5913 32.2296C34.6447 32.1912 37.7153 32.3087 39.2756 31.2248C39.6273 31.0028 39.7314 30.7807 39.4315 31.6175C39.3673 31.7215 35.5422 34.7131 35.1263 34.6996C32.1798 34.7949 31.6146 34.933 31.5606 35.0007C31.2219 34.8691 28.9652 32.1641 27.5818 33.158C27.0478 33.4852 26.8008 33.7988 26.592 34.387C26.7743 34.7656 27.6335 35.3674 28.4259 35.8636C29.5709 36.5959 29.6745 37.365 30.8195 37.6407C32.2111 37.9533 33.6943 37.7442 34.5783 37.8617C34.9176 37.9533 37.9871 37.052 39.8991 36.0201C41.6682 35.1058 37.4666 37.7837 36.4386 39.1032C33.3427 40.0836 34.2148 40.1226 32.744 40.4232C31.3783 40.7363 31.443 40.6583 30.5067 40.9584C29.544 41.1935 28.7506 42.5129 29.6621 43.2046C30.2084 43.6623 31.9128 43.0221 33.5902 42.969C34.3319 42.9571 37.3625 41.5585 38.0518 41.1929C39.7697 40.2651 41.0302 38.9851 42.0452 38.2528C43.4497 37.2741 40.4584 40.9579 39.1963 42.4994C38.8323 42.9966 38.6634 43.1001 38.2082 43.7403C37.4542 44.7213 38.4159 46.2103 38.897 45.9747C39.4563 45.7661 39.8209 44.6427 40.432 44.2766C40.7448 44.1065 41.5771 42.878 42.3575 42.0422C42.9298 41.3895 43.3462 41.1019 43.8925 40.4227C44.8165 39.2728 45.0112 38.398 45.818 37.1695C46.3121 36.5287 46.6627 36.3337 47.1179 35.55C49.5251 30.9778 48.8223 28.9261 51.1253 25.6604C51.8281 24.6936 52.621 24.4579 53.7402 23.8832C54.7806 16.2665 51.3335 12.008 51.3594 11.995ZM40.1979 24.1189C39.651 26.039 39.7039 26.2611 38.6629 26.9793C37.4008 27.9462 37.3355 27.2144 34.4354 28.8345C34.4354 28.8345 33.238 27.5806 31.3519 26.9793C31.3643 27.0059 30.8444 24.5495 29.8169 23.7262C32.2618 21.858 32.1965 20.278 32.5876 20.33C33.4592 20.4085 34.8518 20.8527 37.4272 19.8728C38.911 22.7078 40.706 22.5638 40.1979 24.1189Z" fill="white"/>
<path d="M25.5116 10.2171C24.367 9.44629 24.25 8.67551 23.1179 8.42743C21.7263 8.08781 20.2302 8.29689 19.358 8.12681C19.0198 8.08781 15.9503 8.98913 14.0507 9.98198C12.2557 10.9358 16.4703 8.25735 17.5112 6.88588C20.5942 5.95856 19.7097 5.91902 21.2059 5.57941C22.5586 5.30533 22.4933 5.38333 23.4302 5.10925C24.38 4.84817 25.1863 3.54115 24.2754 2.79692C23.716 2.37876 22.0251 3.019 20.3596 3.032C19.6056 3.08508 16.5738 4.48309 15.8845 4.87471C14.1672 5.77603 12.9057 7.0565 11.8911 7.73574C10.4731 8.76813 13.4779 5.09679 14.74 3.56824C15.1041 3.04554 15.2734 2.941 15.7411 2.3273C16.4703 1.32145 15.5199 -0.168104 15.0523 0.0149757C14.4795 0.276054 14.116 1.39945 13.4256 1.79161C13.1786 1.93569 12.3458 3.16362 11.5788 4.02594C11.006 4.65317 10.5897 4.94025 10.0433 5.65903C9.10695 6.76942 8.92465 7.64474 8.11831 8.82067C7.62425 9.52591 7.25965 9.70899 6.81737 10.5188C4.41129 15.0649 5.10059 17.1161 2.81101 20.3298C2.10876 21.3616 1.31536 21.5837 0.196193 22.1849C-0.84477 29.7882 2.58987 34.0342 2.57639 34.0082C5.4776 32.3497 7.02556 31.6563 10.0438 31.762C11.1759 31.827 11.7741 32.3101 12.8927 32.231C13.9337 32.1666 14.4666 31.7739 15.5075 31.4608C17.1078 30.9256 17.9789 30.4804 19.5792 29.9837C20.7242 29.6565 21.4006 29.6441 22.5068 29.2135C23.4561 28.8603 23.0008 29.1869 23.6643 28.4422C24.5094 27.4623 24.3142 26.7175 25.0434 25.1234C26.1232 22.9422 26.0056 22.6546 25.4334 22.4195C25.798 21.2961 25.9021 20.5779 25.8104 19.4019C25.6933 18.4876 26.0838 17.8474 25.1216 17.1676C23.8072 16.1487 21.0494 13.8494 20.3601 13.8364C19.2933 13.8494 16.2233 13.7319 14.6624 14.7637C14.3118 15.0378 14.2071 15.2604 14.5065 14.4631C14.5717 14.319 18.3963 11.3275 18.8122 11.2885C21.5408 11.23 22.2274 11.1178 22.3574 11.0561C22.6271 11.0631 24.9485 13.896 26.3578 12.9086C26.8783 12.5559 27.1383 12.2423 27.3594 11.6806C27.1642 11.2755 26.3055 10.6748 25.5116 10.2171ZM15.2734 19.0233C16.5221 18.096 16.5997 18.8272 19.5009 17.2467C19.5009 17.2071 20.6978 18.4616 22.5845 19.0233C22.5715 19.0363 23.0915 21.4922 24.1195 22.3415C21.6735 24.1837 21.7387 25.7648 21.3483 25.7382C20.4761 25.6337 19.0846 25.189 16.5091 26.1309C15.0129 23.3349 13.2309 23.4914 13.7379 21.8713C14.2843 20.0162 14.2195 19.7811 15.2734 19.0233Z" fill="white"/>
<path d="M189.157 22.7156L193.673 33.8822L197.638 24.2534C197.742 24.0088 197.793 23.7699 197.793 23.5369C197.793 23.1292 197.632 22.7331 197.311 22.3486L196.742 21.6671L198.293 20.4264C198.362 20.3565 198.425 20.3215 198.483 20.3215C198.563 20.3215 198.649 20.3681 198.741 20.4613L199.707 21.4574C199.902 21.6671 200 21.9234 200 22.2263C200 22.4011 199.965 22.5933 199.896 22.803C199.712 23.3622 199.442 24.0146 199.086 24.7602L193.794 36.7481C193.737 36.8646 193.679 36.9578 193.622 37.0277C193.564 37.0859 193.501 37.115 193.432 37.115H191.984C191.904 37.115 191.84 37.0801 191.794 37.0102C191.76 36.9752 191.714 36.8879 191.656 36.7481C191.611 36.5966 191.576 36.4859 191.553 36.416L185.916 22.803C185.721 22.3603 185.439 22.0108 185.072 21.7545C184.83 21.603 184.589 21.4749 184.348 21.37C184.118 21.2652 183.934 21.1603 183.796 21.0555C183.715 21.0089 183.647 20.9332 183.589 20.8283C183.578 20.7817 183.572 20.7409 183.572 20.706C183.572 20.671 183.578 20.6361 183.589 20.6011C183.624 20.5429 183.687 20.5138 183.779 20.5138H189.433C189.513 20.5138 189.605 20.5429 189.709 20.6011C189.801 20.6827 189.864 20.7584 189.898 20.8283C189.91 20.8633 189.915 20.8924 189.915 20.9157C189.915 21.0205 189.858 21.1254 189.743 21.2302C189.352 21.5914 189.14 21.8302 189.105 21.9467C189.071 22.0516 189.054 22.1622 189.054 22.2787C189.054 22.4185 189.088 22.5642 189.157 22.7156Z" fill="white"/>
<path d="M166.954 27.1543C167.276 24.999 168.121 23.2748 169.488 21.9817C170.867 20.6885 172.677 20.0303 174.918 20.007H174.987C177.251 20.007 178.981 20.6594 180.176 21.9642C181.371 23.2923 181.969 25.0223 181.969 27.1543C181.957 27.6203 181.94 27.9523 181.917 28.1504C181.894 28.3368 181.658 28.43 181.21 28.43H170.23C170.264 30.3173 170.735 31.8842 171.643 33.1307C172.551 34.3656 173.694 35.1229 175.073 35.4025C175.476 35.4957 175.884 35.5423 176.297 35.5423C177.389 35.5423 178.521 35.2219 179.693 34.5812C180.348 34.22 180.791 34.0394 181.021 34.0394C181.078 34.0394 181.124 34.0511 181.159 34.0744C181.193 34.1093 181.21 34.1618 181.21 34.2317C181.21 34.3831 181.136 34.5986 180.986 34.8782C180.848 35.1578 180.733 35.3442 180.641 35.4374C180.561 35.5306 180.486 35.6122 180.417 35.6821C179.165 36.7772 177.464 37.3247 175.315 37.3247C172.304 37.3014 170.046 36.3228 168.54 34.3889C167.38 32.8977 166.799 31.1269 166.799 29.0765C166.799 28.4591 166.851 27.8183 166.954 27.1543ZM170.23 27.1543H179.314C179.314 25.733 178.998 24.4282 178.366 23.2399C177.757 22.1098 176.642 21.5448 175.022 21.5448H174.832C173.212 21.5914 172.051 22.1855 171.35 23.3272C170.649 24.4689 170.276 25.7446 170.23 27.1543Z" fill="white"/>
<path d="M164.248 22.9603C164.271 23.3447 164.282 23.7175 164.282 24.0787C164.282 26.0126 163.932 27.7484 163.231 29.2862C162.381 31.1269 161.197 32.6414 159.68 33.8297C157.106 35.8335 153.968 36.8587 150.268 36.9053H148.889C148.222 36.9053 147.596 36.8995 147.01 36.8879H144.993C144.039 36.8879 143.315 36.8704 142.821 36.8354H142.407C141.948 36.8354 141.35 36.8704 140.615 36.9403C140.373 36.9403 140.253 36.8121 140.253 36.5558C140.253 36.2646 140.54 36.0141 141.115 35.8044C141.689 35.5947 141.976 35.1112 141.976 34.354V14.7295C141.976 13.9839 141.689 13.5121 141.115 13.314C140.54 13.1043 140.253 12.848 140.253 12.5451C140.253 12.3005 140.373 12.1782 140.615 12.1782C141.097 12.1898 141.586 12.1956 142.08 12.1956C142.563 12.1956 143.057 12.1898 143.562 12.1782C144.551 12.1432 145.516 12.1141 146.458 12.0908H147.475C149.234 12.0908 151.003 12.1374 152.785 12.2306C154.888 12.3587 156.784 12.7898 158.473 13.5237C160.059 14.2344 161.375 15.3295 162.421 16.8091C163.467 18.277 164.076 20.3274 164.248 22.9603ZM145.269 13.8383V35.0355C146.694 35.3035 148.061 35.4374 149.372 35.4374C149.877 35.4374 150.371 35.42 150.854 35.385C152.612 35.2452 154.169 34.8142 155.526 34.0919C157.146 33.2298 158.422 31.9133 159.352 30.1425C160.203 28.5115 160.628 26.4378 160.628 23.9214V23.3447C160.582 21.4574 160.249 19.8788 159.628 18.609C159.019 17.3275 158.209 16.3023 157.198 15.5334C155.715 14.415 153.917 13.7567 151.802 13.5587C151.078 13.5004 150.348 13.4713 149.613 13.4713C148.199 13.4713 146.751 13.5936 145.269 13.8383Z" fill="white"/>
<path d="M124.652 33.9695C125.112 34.4239 125.721 34.8433 126.479 35.2277C127.249 35.6005 127.945 35.7928 128.565 35.8044H128.669C128.853 35.8044 129.065 35.7578 129.306 35.6646C129.72 35.5132 130.134 35.3617 130.548 35.2103C130.961 35.0588 131.375 34.9015 131.789 34.7384C132.042 34.6452 132.271 34.4938 132.478 34.2841C133.179 33.5268 133.656 32.6007 133.909 31.5056C134.093 30.6551 134.185 29.8047 134.185 28.9542C134.185 28.7096 134.179 28.4707 134.168 28.2377C134.041 26.5718 133.593 25.2087 132.823 24.1486C132.053 23.0884 131.088 22.3836 129.927 22.0341C129.456 21.9059 128.99 21.8419 128.531 21.8419C128.404 21.8419 128.278 21.8477 128.152 21.8593C127.887 21.8943 127.588 21.97 127.255 22.0865C126.991 22.1914 126.577 22.3486 126.014 22.5583C125.451 22.768 124.997 22.937 124.652 23.0651V33.9695ZM124.652 36.6083C124.388 36.5034 124.072 36.3869 123.704 36.2588C123.543 36.2122 123.4 36.1889 123.273 36.1889C123.101 36.1889 122.951 36.2413 122.825 36.3461C122.572 36.5675 122.4 36.7364 122.308 36.8529C122.25 36.9345 122.176 36.9752 122.084 36.9752C122.026 36.9752 121.969 36.9636 121.911 36.9403C121.659 36.8471 121.532 36.7306 121.532 36.5908V14.8169C121.532 14.0713 121.245 13.5936 120.67 13.3839C120.096 13.1742 119.808 12.9179 119.808 12.615C119.808 12.3704 119.929 12.2481 120.17 12.2481C120.929 12.2131 121.676 12.0966 122.411 11.8986C123.158 11.7005 123.905 11.4733 124.652 11.217V22.0516L129.393 20.2691C129.726 20.1526 130.025 20.0827 130.289 20.0594C130.392 20.0594 130.502 20.0652 130.617 20.0769C130.743 20.0769 130.875 20.0769 131.013 20.0769C132.645 20.1584 134.047 20.8341 135.219 22.104C136.391 23.3971 137.064 24.9641 137.236 26.8048C137.282 27.2941 137.305 27.7717 137.305 28.2377C137.305 28.8435 137.265 29.4319 137.184 30.0027C137.046 30.993 136.673 31.9774 136.064 32.956C135.73 33.5035 135.219 34.0394 134.53 34.5637C134.265 34.7617 133.978 34.919 133.668 35.0355C132.737 35.385 131.812 35.7345 130.892 36.084C129.973 36.4335 129.054 36.7772 128.134 37.115C127.916 37.1849 127.721 37.2199 127.548 37.2199H127.479C126.755 37.1849 125.865 37.0044 124.807 36.6782C124.738 36.6549 124.687 36.6316 124.652 36.6083Z" fill="#FF8A00"/>
<path d="M102.656 27.1543C102.978 24.999 103.823 23.2748 105.19 21.9817C106.569 20.6885 108.379 20.0303 110.62 20.007H110.689C112.953 20.007 114.683 20.6594 115.878 21.9642C117.073 23.2923 117.671 25.0223 117.671 27.1543C117.659 27.6203 117.642 27.9523 117.619 28.1504C117.596 28.3368 117.36 28.43 116.912 28.43H105.932C105.966 30.3173 106.437 31.8842 107.345 33.1307C108.253 34.3656 109.397 35.1229 110.776 35.4025C111.178 35.4957 111.586 35.5423 111.999 35.5423C113.091 35.5423 114.223 35.2219 115.395 34.5812C116.05 34.22 116.493 34.0394 116.723 34.0394C116.78 34.0394 116.826 34.0511 116.861 34.0744C116.895 34.1093 116.912 34.1618 116.912 34.2317C116.912 34.3831 116.838 34.5986 116.688 34.8782C116.55 35.1578 116.435 35.3442 116.343 35.4374C116.263 35.5306 116.188 35.6122 116.119 35.6821C114.867 36.7772 113.166 37.3247 111.017 37.3247C108.006 37.3014 105.748 36.3228 104.242 34.3889C103.082 32.8977 102.501 31.1269 102.501 29.0765C102.501 28.4591 102.553 27.8183 102.656 27.1543ZM105.932 27.1543H115.016C115.016 25.733 114.7 24.4282 114.068 23.2399C113.459 22.1098 112.344 21.5448 110.724 21.5448H110.534C108.914 21.5914 107.753 22.1855 107.052 23.3272C106.351 24.4689 105.978 25.7446 105.932 27.1543Z" fill="#FF8A00"/>
<path d="M74.6791 14.712L81.988 33.6899L86.1941 24.9699L83.4877 17.3857C83.2809 16.7916 83.0912 16.2848 82.9189 15.8654C82.758 15.446 82.6201 15.0907 82.5051 14.7994C82.2983 14.3684 81.9593 13.9781 81.4881 13.6286C81.2123 13.4538 80.9422 13.314 80.6779 13.2092C80.4251 13.0927 80.2182 12.9762 80.0573 12.8597C79.9654 12.8014 79.8907 12.7199 79.8333 12.615C79.8218 12.5568 79.816 12.5102 79.816 12.4752C79.816 12.4286 79.8218 12.3879 79.8333 12.3529C79.8677 12.283 79.9367 12.2481 80.0401 12.2481H85.8838C85.9872 12.2481 86.0849 12.283 86.1768 12.3529C86.2918 12.4345 86.3665 12.5218 86.4009 12.615C86.4124 12.65 86.4182 12.6791 86.4182 12.7024C86.4182 12.8189 86.355 12.9354 86.2286 13.0519C86.1136 13.1568 85.9815 13.2733 85.8321 13.4014C85.6942 13.5179 85.5908 13.6635 85.5218 13.8383C85.4758 13.9548 85.4529 14.0771 85.4529 14.2053C85.4529 14.3684 85.4931 14.5373 85.5735 14.712L88.0386 21.1079L89.8141 17.4382C89.952 17.1353 90.0209 16.8615 90.0209 16.6168C90.0209 16.4071 89.975 16.2207 89.883 16.0576C89.6532 15.7081 89.3142 15.2538 88.866 14.6946L88.0041 13.6985L90.1588 12.0558C90.2508 11.9743 90.3485 11.9335 90.4519 11.9335C90.5668 11.9335 90.6932 11.9918 90.8311 12.1083L92.2446 13.5762C92.5434 13.8907 92.6928 14.2752 92.6928 14.7295C92.6928 14.9858 92.6469 15.2596 92.5549 15.5508C92.2791 16.378 91.8712 17.3508 91.331 18.4692L88.9522 23.467L92.8825 33.6899L100.709 17.4382C100.846 17.1353 100.915 16.8615 100.915 16.6168C100.915 16.4071 100.869 16.2207 100.777 16.0576C100.548 15.7081 100.203 15.2538 99.7432 14.6946L98.8985 13.6985L101.036 12.0558C101.128 11.9743 101.226 11.9335 101.329 11.9335C101.456 11.9335 101.588 11.9918 101.726 12.1083L103.139 13.5762C103.438 13.8907 103.587 14.2752 103.587 14.7295C103.587 14.9858 103.541 15.2596 103.449 15.5508C103.174 16.378 102.766 17.3508 102.225 18.4692L93.7788 36.2238C93.6984 36.4335 93.6122 36.585 93.5203 36.6782C93.4513 36.7481 93.3594 36.783 93.2445 36.783H90.6587C90.5323 36.783 90.4404 36.7364 90.3829 36.6432C90.337 36.6083 90.2738 36.4743 90.1933 36.2413C90.1129 36.0083 90.0554 35.8394 90.0209 35.7345L87.0732 27.4339L82.8844 36.2238C82.8039 36.4335 82.7178 36.585 82.6258 36.6782C82.5569 36.7481 82.4649 36.783 82.35 36.783H79.7643C79.6379 36.783 79.5459 36.7364 79.4885 36.6432C79.4425 36.6083 79.3793 36.4743 79.2989 36.2413C79.2184 36.0083 79.161 35.8394 79.1265 35.7345L71.6107 14.7994C71.4498 14.3917 71.1108 14.0014 70.5937 13.6286C70.3178 13.4538 70.0478 13.314 69.7835 13.2092C69.5306 13.0927 69.3238 12.9762 69.1629 12.8597C69.071 12.8014 68.9963 12.7199 68.9388 12.615C68.9273 12.5568 68.9216 12.5102 68.9216 12.4752C68.9216 12.4286 68.9273 12.3879 68.9388 12.3529C68.9733 12.283 69.0422 12.2481 69.1457 12.2481H74.9894C75.0928 12.2481 75.1962 12.283 75.2996 12.3529C75.4031 12.4461 75.472 12.5335 75.5065 12.615C75.518 12.65 75.5237 12.6791 75.5237 12.7024C75.5237 12.8189 75.4605 12.9354 75.3341 13.0519C75.2192 13.1568 75.087 13.2733 74.9376 13.4014C74.7997 13.5179 74.6963 13.6635 74.6274 13.8383C74.5814 13.9548 74.5584 14.0771 74.5584 14.2053C74.5584 14.3684 74.5986 14.5373 74.6791 14.712Z" fill="#FF8A00"/>
</svg>
