<svg width="80" height="80" viewBox="0 0 80 80" fill="none" xmlns="http://www.w3.org/2000/svg">
<path d="M66.6667 23.3332C65.2508 23.3378 63.8731 23.7931 62.7333 24.6332L56.9 21.9665L63.3333 19.0332C64.3396 19.644 65.4897 19.9776 66.6667 19.9998C67.9852 19.9998 69.2741 19.6088 70.3705 18.8763C71.4668 18.1438 72.3213 17.1026 72.8259 15.8844C73.3305 14.6662 73.4625 13.3258 73.2052 12.0326C72.948 10.7394 72.3131 9.55148 71.3807 8.61913C70.4484 7.68678 69.2605 7.05184 67.9673 6.79461C66.6741 6.53737 65.3336 6.66939 64.1154 7.17398C62.8973 7.67856 61.8561 8.53304 61.1235 9.62937C60.391 10.7257 60 12.0146 60 13.3332L53.7 16.2332C52.8392 15.6218 51.8455 15.2236 50.8007 15.0714C49.7559 14.9192 48.6899 15.0173 47.6905 15.3577C46.691 15.6981 45.7867 16.2709 45.052 17.0292C44.3173 17.7874 43.7731 18.7093 43.4644 19.719C43.1556 20.7286 43.0911 21.7972 43.2761 22.8367C43.4612 23.8762 43.8904 24.8568 44.5286 25.698C45.1667 26.5391 45.9956 27.2166 46.9468 27.6748C47.898 28.1329 48.9445 28.3586 50 28.3332C51.0739 28.3337 52.1299 28.0582 53.0667 27.5332L60.0667 30.8665C60.2333 32.1376 60.763 33.3337 61.5921 34.3115C62.4212 35.2893 63.5146 36.0072 64.7414 36.3794C65.9682 36.7516 67.2762 36.7621 68.5089 36.4098C69.7415 36.0575 70.8464 35.3573 71.6912 34.393C72.536 33.4287 73.0848 32.2414 73.272 30.9731C73.4592 29.7049 73.2767 28.4095 72.7464 27.2424C72.2162 26.0752 71.3606 25.0856 70.2823 24.3923C69.204 23.699 67.9487 23.3312 66.6667 23.3332ZM63.3333 43.3332C62.4493 43.3332 61.6014 43.6844 60.9763 44.3095C60.3512 44.9346 60 45.7825 60 46.6665V47.9665L55.0667 43.0332C54.2085 42.1695 53.188 41.484 52.0639 41.0162C50.9398 40.5485 49.7342 40.3077 48.5167 40.3077C47.2991 40.3077 46.0936 40.5485 44.9695 41.0162C43.8453 41.484 42.8248 42.1695 41.9667 43.0332L39.6333 45.3665L31.3667 37.0665C29.6247 35.3383 27.2704 34.3686 24.8167 34.3686C22.3629 34.3686 20.0086 35.3383 18.2667 37.0665L13.3333 41.9998V23.3332C13.3333 22.4491 13.6845 21.6013 14.3096 20.9762C14.9348 20.351 15.7826 19.9998 16.6667 19.9998H33.3333C34.2174 19.9998 35.0652 19.6487 35.6904 19.0235C36.3155 18.3984 36.6667 17.5506 36.6667 16.6665C36.6667 15.7825 36.3155 14.9346 35.6904 14.3095C35.0652 13.6844 34.2174 13.3332 33.3333 13.3332H16.6667C14.0145 13.3332 11.471 14.3867 9.5956 16.2621C7.72024 18.1375 6.66667 20.681 6.66667 23.3332V63.3332C6.66667 65.9853 7.72024 68.5289 9.5956 70.4042C11.471 72.2796 14.0145 73.3332 16.6667 73.3332H56.6667C59.3188 73.3332 61.8624 72.2796 63.7377 70.4042C65.6131 68.5289 66.6667 65.9853 66.6667 63.3332V46.6665C66.6667 45.7825 66.3155 44.9346 65.6904 44.3095C65.0652 43.6844 64.2174 43.3332 63.3333 43.3332ZM16.6667 66.6665C15.7826 66.6665 14.9348 66.3153 14.3096 65.6902C13.6845 65.0651 13.3333 64.2172 13.3333 63.3332V51.4332L23 41.7665C23.4897 41.2998 24.1402 41.0395 24.8167 41.0395C25.4931 41.0395 26.1436 41.2998 26.6333 41.7665L37.2 52.3332L51.5 66.6665H16.6667ZM60 63.3332C59.9952 63.9713 59.7848 64.5908 59.4 65.0998L44.3667 49.9998L46.7 47.6665C47.1872 47.1821 47.8463 46.9101 48.5333 46.9101C49.2204 46.9101 49.8795 47.1821 50.3667 47.6665L60 57.3998V63.3332Z" fill="#0A663A"/>
</svg>
