<svg width="80" height="80" viewBox="0 0 80 80" fill="none" xmlns="http://www.w3.org/2000/svg">
<path d="M41 40.7332C42.7786 39.1936 44.2052 37.2895 45.1829 35.1499C46.1607 33.0104 46.6667 30.6855 46.6667 28.3332C46.6667 23.9129 44.9107 19.6737 41.7851 16.5481C38.6595 13.4225 34.4203 11.6665 30 11.6665C25.5797 11.6665 21.3405 13.4225 18.2149 16.5481C15.0893 19.6737 13.3333 23.9129 13.3333 28.3332C13.3333 30.6855 13.8393 33.0104 14.8171 35.1499C15.7948 37.2895 17.2214 39.1936 19 40.7332C14.3338 42.8461 10.3749 46.2583 7.59661 50.5617C4.81833 54.865 3.33825 59.8775 3.33334 64.9998C3.33334 65.8839 3.68453 66.7317 4.30965 67.3569C4.93478 67.982 5.78262 68.3332 6.66668 68.3332C7.55073 68.3332 8.39858 67.982 9.0237 67.3569C9.64882 66.7317 10 65.8839 10 64.9998C10 59.6955 12.1071 54.6084 15.8579 50.8577C19.6086 47.107 24.6957 44.9998 30 44.9998C35.3043 44.9998 40.3914 47.107 44.1421 50.8577C47.8929 54.6084 50 59.6955 50 64.9998C50 65.8839 50.3512 66.7317 50.9763 67.3569C51.6014 67.982 52.4493 68.3332 53.3333 68.3332C54.2174 68.3332 55.0652 67.982 55.6904 67.3569C56.3155 66.7317 56.6667 65.8839 56.6667 64.9998C56.6618 59.8775 55.1817 54.865 52.4034 50.5617C49.6251 46.2583 45.6662 42.8461 41 40.7332V40.7332ZM30 38.3332C28.0222 38.3332 26.0888 37.7467 24.4443 36.6479C22.7998 35.5491 21.5181 33.9873 20.7612 32.16C20.0043 30.3327 19.8063 28.3221 20.1922 26.3823C20.578 24.4425 21.5304 22.6606 22.9289 21.2621C24.3275 19.8636 26.1093 18.9112 28.0491 18.5253C29.9889 18.1395 31.9996 18.3375 33.8268 19.0944C35.6541 19.8513 37.2159 21.133 38.3147 22.7775C39.4135 24.422 40 26.3554 40 28.3332C40 30.9853 38.9464 33.5289 37.0711 35.4042C35.1957 37.2796 32.6522 38.3332 30 38.3332ZM62.4667 39.3998C64.5999 36.9976 65.9934 34.03 66.4793 30.8543C66.9653 27.6786 66.5231 24.4301 65.2059 21.4998C63.8887 18.5696 61.7527 16.0825 59.0549 14.3379C56.3572 12.5933 53.2127 11.6656 50 11.6665C49.116 11.6665 48.2681 12.0177 47.643 12.6428C47.0179 13.2679 46.6667 14.1158 46.6667 14.9998C46.6667 15.8839 47.0179 16.7317 47.643 17.3569C48.2681 17.982 49.116 18.3332 50 18.3332C52.6522 18.3332 55.1957 19.3867 57.0711 21.2621C58.9464 23.1375 60 25.681 60 28.3332C59.9953 30.084 59.531 31.8029 58.6535 33.3179C57.7761 34.833 56.5163 36.0911 55 36.9665C54.5058 37.2516 54.093 37.6587 53.8012 38.149C53.5094 38.6392 53.3483 39.1962 53.3333 39.7665C53.3194 40.3324 53.4498 40.8925 53.7122 41.394C53.9747 41.8956 54.3605 42.322 54.8333 42.6332L56.1333 43.4998L56.5667 43.7332C60.5847 45.6389 63.9744 48.6531 66.3366 52.4209C68.6988 56.1886 69.9352 60.553 69.9 64.9998C69.9 65.8839 70.2512 66.7317 70.8763 67.3569C71.5014 67.982 72.3493 68.3332 73.2333 68.3332C74.1174 68.3332 74.9652 67.982 75.5904 67.3569C76.2155 66.7317 76.5667 65.8839 76.5667 64.9998C76.5939 59.8846 75.3128 54.8474 72.8449 50.3667C70.3771 45.8861 66.8045 42.1109 62.4667 39.3998V39.3998Z" fill="#0A663A"/>
</svg>
